<svg width="326" height="325" viewBox="0 0 326 325" fill="none" xmlns="http://www.w3.org/2000/svg">
<path d="M324 325L51 325L115.114 145.068L324 52L324 325Z" fill="url(#paint0_linear_89_63)"/>
<path d="M0 0L315 15.7122L254.681 240.173L20.1064 312L0 0Z" fill="#1E1E1E"/>
<path d="M45.16 120.424V88.552H33.64V79.912H66.92V88.552H55.4V120.424H45.16ZM78.4425 120.424V79.912H108.523V88.232H88.6825V95.912H105.899V104.232H88.6825V112.104H108.523V120.424H78.4425ZM130.91 120.424H120.67V79.912H139.998C145.075 79.912 148.766 81.064 151.07 83.368C153.417 85.6293 154.59 88.9787 154.59 93.416C154.59 96.744 153.758 99.6027 152.094 101.992C150.43 104.339 148.233 105.811 145.502 106.408L145.438 106.6C146.505 107.283 147.678 108.413 148.958 109.992C150.238 111.571 151.497 113.299 152.734 115.176C154.014 117.011 155.145 118.739 156.126 120.36V120.424H144.222L137.31 110.184C136.713 109.288 136.222 108.648 135.838 108.264C135.497 107.88 135.07 107.645 134.558 107.56C134.089 107.475 133.321 107.432 132.254 107.432H130.91V120.424ZM138.334 88.232H130.91V99.112H138.334C140.467 99.112 141.939 98.6853 142.75 97.832C143.603 96.9787 144.03 95.592 144.03 93.672C144.03 91.752 143.603 90.3653 142.75 89.512C141.939 88.6587 140.467 88.232 138.334 88.232ZM179.2 120.424H168.96V79.912H188.288C193.365 79.912 197.056 81.064 199.36 83.368C201.707 85.6293 202.88 88.9787 202.88 93.416C202.88 96.744 202.048 99.6027 200.384 101.992C198.72 104.339 196.523 105.811 193.792 106.408L193.728 106.6C194.795 107.283 195.968 108.413 197.248 109.992C198.528 111.571 199.787 113.299 201.024 115.176C202.304 117.011 203.435 118.739 204.416 120.36V120.424H192.512L185.6 110.184C185.003 109.288 184.512 108.648 184.128 108.264C183.787 107.88 183.36 107.645 182.848 107.56C182.379 107.475 181.611 107.432 180.544 107.432H179.2V120.424ZM186.624 88.232H179.2V99.112H186.624C188.757 99.112 190.229 98.6853 191.04 97.832C191.893 96.9787 192.32 95.592 192.32 93.672C192.32 91.752 191.893 90.3653 191.04 89.512C190.229 88.6587 188.757 88.232 186.624 88.232ZM254.37 120.232V120.424H243.49C243.191 119.4 242.829 118.227 242.402 116.904C242.018 115.581 241.591 114.173 241.122 112.68H227.298C226.445 115.667 225.655 118.248 224.93 120.424H214.05V120.296L227.17 79.912H241.25L254.37 120.232ZM234.082 87.208C233.655 89.384 233.037 92.0293 232.226 95.144C231.415 98.2587 230.562 101.437 229.666 104.68H238.818C237.879 101.437 237.005 98.2587 236.194 95.144C235.383 92.0293 234.765 89.384 234.338 87.208H234.082Z" fill="white"/>
<path d="M67.048 175.656V183.72C65 184.147 62.9947 184.467 61.032 184.68C59.0693 184.893 56.744 185 54.056 185C50.6 185 47.6773 184.701 45.288 184.104C42.9413 183.507 41.0427 182.461 39.592 180.968C38.184 179.432 37.16 177.277 36.52 174.504C35.88 171.731 35.56 168.168 35.56 163.816C35.56 159.635 35.88 156.2 36.52 153.512C37.16 150.824 38.184 148.755 39.592 147.304C41.0427 145.811 42.9413 144.787 45.288 144.232C47.6773 143.635 50.6 143.336 54.056 143.336C56.744 143.336 59.0693 143.443 61.032 143.656C62.9947 143.827 65 144.147 67.048 144.616V152.936L66.856 153.064C65.064 152.637 63.336 152.339 61.672 152.168C60.008 151.955 57.96 151.848 55.528 151.848C53.5653 151.848 51.944 151.997 50.664 152.296C49.4267 152.552 48.4453 153.085 47.72 153.896C46.9947 154.707 46.4827 155.901 46.184 157.48C45.928 159.059 45.8 161.171 45.8 163.816C45.8 166.589 45.928 168.829 46.184 170.536C46.4827 172.2 46.9947 173.459 47.72 174.312C48.4453 175.165 49.4267 175.741 50.664 176.04C51.944 176.339 53.5653 176.488 55.528 176.488C57.9173 176.488 59.944 176.424 61.608 176.296C63.3147 176.125 65.0213 175.827 66.728 175.4L67.048 175.656ZM78.225 164.136C78.225 158.973 78.801 154.877 79.953 151.848C81.1477 148.819 83.1743 146.643 86.033 145.32C88.9343 143.997 92.9663 143.336 98.129 143.336C102.012 143.336 105.233 143.699 107.793 144.424C110.353 145.149 112.38 146.323 113.873 147.944C115.366 149.565 116.412 151.72 117.009 154.408C117.649 157.053 117.969 160.296 117.969 164.136C117.969 168.019 117.649 171.304 117.009 173.992C116.412 176.637 115.366 178.771 113.873 180.392C112.38 182.013 110.353 183.187 107.793 183.912C105.233 184.637 102.012 185 98.129 185C94.2463 185 91.025 184.637 88.465 183.912C85.905 183.187 83.8783 182.013 82.385 180.392C80.8917 178.771 79.825 176.637 79.185 173.992C78.545 171.304 78.225 168.019 78.225 164.136ZM98.129 176.04C100.86 176.04 102.908 175.699 104.273 175.016C105.638 174.333 106.556 173.139 107.025 171.432C107.494 169.683 107.729 167.251 107.729 164.136C107.729 161.064 107.494 158.675 107.025 156.968C106.556 155.261 105.638 154.067 104.273 153.384C102.908 152.659 100.86 152.296 98.129 152.296C95.441 152.296 93.393 152.659 91.985 153.384C90.6197 154.067 89.681 155.261 89.169 156.968C88.6997 158.675 88.465 161.064 88.465 164.136C88.465 167.251 88.6997 169.683 89.169 171.432C89.681 173.139 90.6197 174.333 91.985 175.016C93.393 175.699 95.441 176.04 98.129 176.04ZM131.42 184.424V143.912H149.148C152.689 143.912 155.655 144.211 158.044 144.808C160.433 145.363 162.353 146.365 163.804 147.816C165.255 149.267 166.3 151.293 166.94 153.896C167.58 156.456 167.9 159.763 167.9 163.816C167.9 168.04 167.58 171.496 166.94 174.184C166.3 176.872 165.255 178.963 163.804 180.456C162.353 181.949 160.433 182.995 158.044 183.592C155.655 184.147 152.689 184.424 149.148 184.424H131.42ZM147.676 152.552H141.66V175.784H147.676C150.151 175.784 152.092 175.507 153.5 174.952C154.951 174.397 155.975 173.267 156.572 171.56C157.212 169.853 157.532 167.272 157.532 163.816C157.532 160.531 157.212 158.099 156.572 156.52C155.975 154.899 154.951 153.832 153.5 153.32C152.092 152.808 150.151 152.552 147.676 152.552ZM181.335 184.424V143.912H211.415V152.232H191.575V159.912H208.791V168.232H191.575V176.104H211.415V184.424H181.335ZM234.315 175.336C234.4 176.275 234.464 177.085 234.507 177.768C234.549 178.408 234.571 179.091 234.571 179.816C234.571 180.499 234.549 181.203 234.507 181.928C234.464 182.611 234.4 183.4 234.315 184.296C233.248 184.467 232.181 184.616 231.115 184.744C230.048 184.872 228.981 184.936 227.915 184.936C226.891 184.936 225.867 184.872 224.843 184.744C223.819 184.616 222.773 184.467 221.707 184.296C221.579 183.443 221.493 182.675 221.451 181.992C221.408 181.267 221.387 180.563 221.387 179.88C221.387 179.24 221.408 178.557 221.451 177.832C221.493 177.107 221.579 176.275 221.707 175.336C223.84 174.952 225.952 174.76 228.043 174.76C230.133 174.76 232.224 174.952 234.315 175.336Z" fill="#E87A15"/>
<path d="M261.44 298.24C266.253 298.24 268.66 300.533 268.66 305.12C268.66 309.707 266.253 312 261.44 312H255.48V298.24H261.44ZM259.9 308.7H261.36C263.213 308.7 264.14 307.707 264.14 305.72V304.52C264.14 302.533 263.213 301.54 261.36 301.54H259.9V308.7ZM273.146 298.24H285.046V301.54H277.566V303.44H283.966V306.6H277.566V308.7H285.186V312H273.146V298.24ZM293.42 312L288.54 298.24H293.26L296.02 307.44H296.1L298.88 298.24H303.4L298.54 312H293.42ZM304.528 312V308.02H308.768V312H304.528Z" fill="white"/>
<defs>
<linearGradient id="paint0_linear_89_63" x1="146.5" y1="359.5" x2="352.5" y2="141.5" gradientUnits="userSpaceOnUse">
<stop stop-color="#E87A15"/>
<stop offset="1" stop-color="#7C2A6F" stop-opacity="0.78"/>
</linearGradient>
</defs>
</svg>
